<?xml version="1.0" encoding="utf-8"?>
<!DOCTYPE svg PUBLIC "-//W3C//DTD SVG 1.1//EN" "http://www.w3.org/Graphics/SVG/1.1/DTD/svg11.dtd">
<svg version="1.1" xmlns="http://www.w3.org/2000/svg" xmlns:xlink="http://www.w3.org/1999/xlink" x="0px" y="0px"
	 width="100px" height="20.237px" viewBox="0 0 100 20.237" enable-background="new 0 0 100 20.237" xml:space="preserve">
<path fill="#314F41" d="M99.292,10.131c0,4.768-2.133,9.404-2.133,9.404H2.853c0,0-2.133-4.466-2.133-9.064
	c0-4.598,2.133-9.745,2.133-9.745h94.307C97.159,0.726,99.292,5.362,99.292,10.131"/>
<path fill="#FFFFFF" d="M97.802,0.414L97.611,0H2.37L2.188,0.44C2.098,0.654,0,5.771,0,10.458c0,4.707,2.112,9.186,2.203,9.373
	l0.194,0.406h95.214l0.191-0.416c0.089-0.195,2.198-4.835,2.198-9.703C100,5.251,97.891,0.61,97.802,0.414 M96.682,18.81H3.311
	c-0.501-1.177-1.884-4.751-1.884-8.352c0-3.647,1.411-7.712,1.908-9.03h93.348c0.5,1.216,1.892,4.941,1.892,8.69
	S97.183,17.592,96.682,18.81"/>
<path fill="#FFFFFF" d="M86.692,16.421h3.55c-0.333-0.278-0.606-0.565-0.817-0.861c-0.21-0.295-0.408-0.677-0.592-1.146
	L84.892,4.051h-2.815c0.156,0.117,0.266,0.237,0.334,0.355s0.104,0.249,0.104,0.393c0,0.124-0.019,0.267-0.055,0.427
	c-0.035,0.161-0.087,0.323-0.16,0.489l-3.482,8.822c-0.203,0.507-0.401,0.906-0.594,1.197c-0.192,0.292-0.411,0.521-0.653,0.687
	h2.922c-0.192-0.177-0.331-0.338-0.417-0.48c-0.088-0.144-0.129-0.274-0.129-0.394c0-0.144,0.013-0.282,0.039-0.415
	c0.027-0.134,0.068-0.263,0.121-0.389l0.388-0.973l0.001,0.027c0,0,0.183-0.614,0.76-1.159c0.651-0.614,1.988-0.922,3.174-0.675
	c1.221,0.257,1.802,0.86,2.086,1.457l0.452,1.226c0.012,0.028,0.026,0.074,0.045,0.133c0.142,0.368,0.213,0.649,0.213,0.839
	c0,0.16-0.161,0.413-0.49,0.759L86.692,16.421 M84.529,10.565c-1.069-0.189-2.025-0.069-3.025,0.669l2.177-5.465l1.917,5.176
	C85.247,10.765,84.877,10.627,84.529,10.565"/>
<path fill="#FFFFFF" d="M50.653,16.421h3.552c-0.333-0.278-0.606-0.565-0.816-0.861c-0.211-0.295-0.409-0.677-0.592-1.146
	l-3.94-10.362h-2.817c0.154,0.117,0.267,0.237,0.334,0.355c0.069,0.118,0.103,0.249,0.103,0.393c0,0.124-0.018,0.267-0.054,0.427
	c-0.036,0.161-0.09,0.323-0.161,0.489l-3.482,8.822c-0.202,0.507-0.399,0.906-0.592,1.197c-0.194,0.292-0.412,0.521-0.655,0.687
	h2.922c-0.191-0.177-0.331-0.338-0.417-0.48c-0.086-0.144-0.129-0.274-0.129-0.394c0-0.144,0.012-0.282,0.04-0.415
	c0.027-0.134,0.067-0.263,0.121-0.389l0.388-0.973l0.001,0.027c0,0,0.184-0.614,0.76-1.159c0.651-0.614,1.988-0.922,3.174-0.675
	c1.221,0.257,1.802,0.86,2.085,1.457l0.453,1.226c0.011,0.028,0.026,0.074,0.044,0.133c0.142,0.368,0.214,0.649,0.214,0.839
	c0,0.16-0.163,0.413-0.49,0.759L50.653,16.421 M48.492,10.565c-1.071-0.189-2.027-0.069-3.026,0.669l2.178-5.465l1.917,5.176
	C49.21,10.765,48.839,10.627,48.492,10.565"/>
<path fill="#FFFFFF" d="M29.452,16.421h3.55c-0.333-0.278-0.605-0.565-0.816-0.861c-0.212-0.295-0.409-0.677-0.592-1.146
	l-3.94-10.362h-2.816c0.154,0.117,0.267,0.237,0.334,0.355s0.102,0.249,0.102,0.393c0,0.124-0.018,0.267-0.054,0.427
	c-0.035,0.161-0.089,0.323-0.161,0.489l-3.482,8.822c-0.202,0.507-0.4,0.906-0.592,1.197c-0.192,0.292-0.41,0.521-0.654,0.687h2.921
	c-0.191-0.177-0.331-0.338-0.417-0.48c-0.086-0.144-0.13-0.274-0.13-0.394c0-0.144,0.013-0.282,0.04-0.415
	c0.028-0.134,0.068-0.263,0.121-0.389l0.387-0.973l0.002,0.027c0,0,0.184-0.614,0.76-1.159c0.651-0.614,1.988-0.922,3.173-0.675
	c1.222,0.257,1.802,0.86,2.086,1.457l0.453,1.226c0.012,0.028,0.027,0.074,0.045,0.133c0.141,0.368,0.213,0.649,0.213,0.839
	c0,0.16-0.163,0.413-0.489,0.759L29.452,16.421 M27.288,10.565c-1.069-0.189-2.024-0.069-3.024,0.669l2.177-5.465l1.917,5.176
	C28.007,10.765,27.638,10.627,27.288,10.565"/>
<path fill="#FFFFFF" d="M20.604,13.944l-0.938,2.213c-0.58,0.187-1.123,0.329-1.632,0.424c-0.508,0.094-0.994,0.141-1.456,0.141
	c-0.687,0-1.354-0.088-2.005-0.266c-0.651-0.177-1.266-0.44-1.846-0.79c-0.924-0.551-1.643-1.305-2.157-2.265
	c-0.514-0.958-0.771-2.015-0.771-3.169c0-0.864,0.186-1.705,0.559-2.522c0.373-0.816,0.902-1.541,1.588-2.175
	c0.626-0.573,1.343-1.01,2.147-1.311c0.804-0.298,1.662-0.448,2.573-0.448c0.432,0,0.886,0.04,1.362,0.121
	c0.477,0.08,0.986,0.203,1.53,0.37v1.981c-0.556-0.295-1.082-0.514-1.579-0.655c-0.497-0.141-0.981-0.212-1.454-0.212
	c-1.379,0-2.483,0.428-3.314,1.279c-0.832,0.852-1.246,1.982-1.246,3.391c0,1.545,0.431,2.793,1.292,3.742
	c0.863,0.949,1.996,1.425,3.4,1.425c0.575,0,1.186-0.104,1.835-0.314C19.143,14.695,19.845,14.375,20.604,13.944"/>
<path fill="#FFFFFF" d="M33.486,16.142l-0.585-2.248c0.715,0.481,1.411,0.84,2.085,1.075c0.674,0.234,1.343,0.352,2.007,0.352
	c0.846,0,1.528-0.182,2.042-0.548c0.515-0.363,0.772-0.837,0.772-1.418c0-0.166-0.027-0.332-0.08-0.498s-0.13-0.323-0.231-0.472
	c-0.225-0.338-0.979-0.819-2.263-1.447c-0.327-0.153-0.577-0.275-0.754-0.364c-1.202-0.604-2.027-1.159-2.474-1.668
	c-0.447-0.509-0.67-1.113-0.67-1.812c0-1,0.409-1.794,1.224-2.383c0.815-0.589,1.932-0.883,3.351-0.883
	c0.407,0,0.856,0.027,1.347,0.079c0.491,0.054,1.022,0.137,1.597,0.249v2.066c-0.508-0.384-1.021-0.672-1.535-0.862
	c-0.514-0.188-1.049-0.284-1.604-0.284c-0.705,0-1.27,0.151-1.699,0.453c-0.428,0.302-0.642,0.695-0.642,1.182
	c0,0.433,0.168,0.815,0.506,1.146c0.338,0.332,1.096,0.776,2.275,1.333c0.065,0.028,0.166,0.076,0.302,0.141
	c0.994,0.458,1.735,0.877,2.227,1.264c0.367,0.285,0.652,0.631,0.856,1.041c0.204,0.409,0.306,0.845,0.306,1.306
	c0,1.063-0.485,1.962-1.455,2.7c-0.971,0.738-2.184,1.107-3.641,1.107c-0.467,0-0.97-0.051-1.508-0.152
	C34.705,16.496,34.119,16.344,33.486,16.142"/>
<path fill="#FFFFFF" d="M55.283,16.417c0.265-0.237,0.454-0.506,0.568-0.805c0.113-0.3,0.17-0.76,0.17-1.383V6.248
	c0-0.622-0.057-1.08-0.17-1.376c-0.114-0.296-0.304-0.559-0.568-0.789h3.415c-0.27,0.23-0.461,0.493-0.572,0.789
	c-0.11,0.296-0.167,0.754-0.167,1.376v8.577c0.479,0.071,0.906,0.125,1.285,0.161c0.379,0.037,0.707,0.054,0.984,0.054
	c0.62,0,1.212-0.084,1.773-0.256c0.563-0.171,1.108-0.434,1.64-0.789l-0.857,2.422H55.283"/>
<path fill="#FFFFFF" d="M67.071,14.232c0,0.621,0.056,1.082,0.167,1.381c0.113,0.299,0.303,0.566,0.572,0.804h-3.415
	c0.272-0.237,0.462-0.505,0.572-0.804c0.112-0.299,0.168-0.76,0.168-1.381V6.25c0-0.622-0.056-1.081-0.168-1.377
	c-0.11-0.297-0.3-0.56-0.572-0.79h3.415c-0.27,0.23-0.459,0.493-0.572,0.79c-0.111,0.296-0.167,0.755-0.167,1.377V14.232"/>
<path fill="#FFFFFF" d="M74.575,16.722c-0.525-0.136-0.976-0.432-1.348-0.892c-0.373-0.459-0.716-1.144-1.028-2.055L69.7,6.595
	c-0.201-0.591-0.393-1.072-0.574-1.446c-0.181-0.372-0.377-0.729-0.591-1.065l2.534,0.009c0.012,0.201,0.032,0.388,0.062,0.561
	c0.03,0.172,0.068,0.333,0.116,0.486l3.001,8.828l2.838-7.353c0.084-0.225,0.15-0.452,0.2-0.681c0.05-0.228,0.075-0.436,0.075-0.625
	c0-0.166-0.046-0.342-0.142-0.528c-0.095-0.187-0.254-0.419-0.479-0.697h2.83L74.575,16.722"/>
</svg>
