<?xml version="1.0" encoding="utf-8"?>
<!DOCTYPE svg PUBLIC "-//W3C//DTD SVG 1.1//EN" "http://www.w3.org/Graphics/SVG/1.1/DTD/svg11.dtd">
<svg version="1.1" id="logo_oligra_negative" xmlns="http://www.w3.org/2000/svg" xmlns:xlink="http://www.w3.org/1999/xlink" x="0px" y="0px"
	 width="100px" height="52.908px" viewBox="0 0 100 52.908" enable-background="new 0 0 100 52.908" xml:space="preserve">
<path fill="#FFFFFF" d="M66.042,50.984l-0.026-0.002c-10.701,0.679-34.344,1.108-52.609-6.297c-0.005-0.003-0.046-0.022-0.114-0.036
	c-0.116-0.024-0.269-0.021-0.325,0.086l-0.01,0.024c-0.083,0.205,0.096,0.301,0.129,0.316c0.036,0.021,0.072,0.039,0.11,0.057
	c8.255,4.083,26.534,10.656,52.979,6.393l0.052-0.017c0,0,0.212-0.123,0.111-0.364C66.271,50.976,66.042,50.984,66.042,50.984"/>
<path fill="#FFFFFF" d="M30.335,45.499C30.338,45.5,30.326,45.499,30.335,45.499"/>
<path fill="#FFFFFF" d="M34.085,1.927l0.026,0C44.812,1.249,68.454,0.82,86.716,8.225c0.008,0.003,0.047,0.021,0.114,0.036
	c0.116,0.023,0.271,0.022,0.325-0.087l0.011-0.023c0.083-0.206-0.098-0.301-0.127-0.316C87,7.813,86.962,7.796,86.926,7.777
	C78.671,3.696,60.396-2.88,33.951,1.385l-0.054,0.018c0,0-0.212,0.12-0.111,0.363C33.855,1.933,34.085,1.927,34.085,1.927"/>
<path fill="#FFFFFF" d="M85.087,9.936C75.699,5.697,63.24,3.361,50,3.361c-13.239,0-25.699,2.336-35.084,6.574
	C5.3,14.279,0,20.141,0,26.438c0,6.299,5.3,12.16,14.916,16.506C24.301,47.18,36.761,49.512,50,49.512
	c13.24,0,25.699-2.332,35.087-6.568C94.706,38.597,100,32.736,100,26.438C100,20.141,94.706,14.279,85.087,9.936z M84.529,41.27
	c-7.118,3.213-17.315,5.455-26.13,6.204c-0.493,0.042-0.959,0.081-1.403,0.117c-1.424,0.116-2.604,0.205-3.579,0.272h-0.006
	c-4.162,0.286-4.627,0.184-4.627,0.184c0.805-0.06,1.597-0.125,2.377-0.199c7.044-0.659,13.08-1.853,18.069-3.177
	c6.428-1.705,11.119-3.628,13.995-4.904l-0.094-0.271l0.094,0.271c0.049-0.021,0.098-0.043,0.146-0.064
	c0.051-0.023,0.103-0.046,0.153-0.069l0.023-0.019c0,0,0.235-0.137,0.124-0.406c-0.078-0.185-0.336-0.177-0.336-0.177l-0.021,0.006
	c-0.114,0.041-0.229,0.081-0.344,0.123c-14.619,5.274-28.989,6.82-40.415,6.913l-0.078-0.014c-2.177,0.007-4.312-0.07-6.395-0.223
	c-0.004,0-0.007,0-0.011,0c-7.249-0.532-13.853-1.987-19.253-4.107l-0.199-0.086c-0.25-0.091-0.266-0.139-0.266-0.139l-0.305-0.142
	c-0.067-0.032-0.134-0.062-0.207-0.093C6.917,37.238,1.999,31.961,1.999,26.418c0-5.546,4.895-10.868,13.844-14.851
	c8.18-3.642,24.826-7.382,38.713-6.506c0.057,0.003-5.09,0.146-12.307,1.075C32.047,7.445,22.426,10.88,17.178,13.21l-0.023,0.02
	c0,0-0.237,0.133-0.126,0.404c0.08,0.187,0.335,0.179,0.335,0.179l0.023-0.006c14.75-5.333,29.26-6.854,40.777-6.914l0.075,0.016
	c9.761,0,18.705,1.655,25.653,4.407l0.072,0.024c0.249,0.091,0.566,0.228,0.566,0.228c8.931,4.028,13.847,9.305,13.847,14.851
	C98.376,31.961,93.46,37.238,84.529,41.27z M83.036,39.224l0.023-0.005L83.036,39.224L83.036,39.224z"/>
<path fill="#FFFFFF" d="M83.269,39.801c0,0,0.058-0.033,0.103-0.099c-0.048,0.021-0.097,0.043-0.146,0.065l0.018,0.051
	L83.269,39.801z"/>
<path fill="#FFFFFF" d="M14.445,25.2c0.496-2.819,1.795-5.082,3.895-6.792c2.1-1.712,4.564-2.564,7.39-2.564
	c2.82,0,4.979,0.853,6.48,2.564c1.495,1.71,1.994,3.973,1.495,6.792c-0.498,2.818-1.795,5.079-3.895,6.788
	c-2.102,1.714-4.564,2.567-7.384,2.567c-2.828,0-4.987-0.854-6.485-2.567C14.445,30.279,13.947,28.018,14.445,25.2 M18.526,25.2
	c-0.296,1.672-0.031,3.041,0.798,4.114c0.829,1.066,2.074,1.604,3.743,1.604c1.664,0,3.099-0.538,4.303-1.604
	c1.211-1.073,1.963-2.442,2.255-4.114c0.297-1.675,0.031-3.039-0.798-4.113c-0.832-1.07-2.077-1.604-3.743-1.604
	s-3.102,0.534-4.305,1.604C19.57,22.162,18.818,23.525,18.526,25.2"/>
<polygon fill="#FFFFFF" points="34.382,34.11 37.743,15.07 41.49,15.07 38.129,34.11 "/>
<polygon fill="#FFFFFF" points="40.893,34.11 43.055,21.87 46.8,21.87 44.641,34.11 "/>
<path fill="#FFFFFF" d="M62.47,21.871l-1.978,11.199c-0.834,4.714-3.611,7.075-8.333,7.075c-2.603,0-4.551-0.599-5.834-1.782
	l2.642-3.115c1.054,1.057,2.286,1.588,3.699,1.588c1.108,0,2.007-0.288,2.694-0.86c0.646-0.518,1.051-1.231,1.208-2.139l0.212-1.184
	h-0.051c-0.961,1.071-2.206,1.61-3.735,1.61c-1.794,0-3.146-0.59-4.047-1.766c-0.901-1.171-1.188-2.693-0.86-4.552
	c0.305-1.712,1.062-3.182,2.276-4.404c1.309-1.311,2.797-1.963,4.468-1.963c0.994,0,1.852,0.208,2.572,0.627
	c0.609,0.351,1.041,0.778,1.289,1.276l0.287-1.611H62.47z M51.842,27.922c-0.14,0.806,0.028,1.512,0.508,2.12
	c0.483,0.606,1.147,0.912,1.992,0.912c0.839,0,1.609-0.306,2.307-0.912c0.697-0.608,1.118-1.314,1.26-2.12
	c0.143-0.812-0.029-1.519-0.508-2.126c-0.486-0.605-1.144-0.909-1.989-0.909s-1.612,0.304-2.307,0.909
	C52.407,26.404,51.986,27.11,51.842,27.922"/>
<path fill="#FFFFFF" d="M63.273,34.11l2.162-12.241h3.753l-0.344,1.951c1.083-1.495,2.389-2.242,3.916-2.242
	c0.55,0,0.963,0.039,1.237,0.126l-0.609,3.44c-0.55-0.171-1.069-0.258-1.544-0.258c-1.317,0-2.268,0.382-2.867,1.134
	c-0.452,0.575-0.803,1.565-1.048,2.974l-0.901,5.116H63.273z"/>
<path fill="#FFFFFF" d="M81.244,34.11l0.273-1.536c-0.991,1.223-2.396,1.833-4.217,1.833c-1.214,0-2.183-0.318-2.896-0.961
	c-0.749-0.7-1.023-1.643-0.816-2.818c0.329-1.847,1.537-3.098,3.634-3.757c1.219-0.368,3.019-0.551,5.398-0.551
	c0.116-0.648-0.028-1.171-0.426-1.567c-0.398-0.404-0.933-0.602-1.602-0.602c-1.172,0-2.283,0.481-3.321,1.448l-1.65-2.063
	c1.627-1.306,3.538-1.958,5.739-1.958c2.097,0,3.489,0.544,4.168,1.634c0.589,0.959,0.692,2.521,0.31,4.684l-1.103,6.214H81.244z
	 M82.195,28.748H81.27c-2.472,0-3.812,0.585-4.019,1.755c-0.072,0.422,0.06,0.757,0.4,1.004c0.294,0.22,0.674,0.328,1.142,0.328
	c0.788,0,1.493-0.201,2.125-0.604c0.628-0.403,1.005-0.963,1.134-1.68L82.195,28.748z"/>
<path fill="#979533" d="M43.982,19.91c0,0,0.898-0.021,1.684-0.121c1.911-0.247,3.549-1.374,4.533-4.623
	c0.297-0.988,0.902-1.455,0.927-1.632c0.008-0.067,0.021,0.355-1.689,0.791c-1.705,0.438-3.716,0.29-4.339,2.583
	C44.473,19.2,44.6,19.022,43.982,19.91"/>
</svg>
